<mxfile host="app.diagrams.net" modified="2024-05-17T00:39:10.273Z" agent="Mozilla/5.0 (Macintosh; Intel Mac OS X 10_15_7) AppleWebKit/605.1.15 (KHTML, like Gecko) Version/16.5.1 Safari/605.1.15" version="24.3.1" etag="uF7tleM1b8Nkp5cV8-ID" type="github">
  <diagram name="PÃ¡gina-1" id="FPbKVEMLMMFolBAVLwJ5">
    <mxGraphModel>
      <root>
        <mxCell id="0" />
        <mxCell id="1" parent="0" />
      </root>
    </mxGraphModel>
  </diagram>
</mxfile>
